<svg xmlns="http://www.w3.org/2000/svg" width="1000" height="650" viewBox="0 0 1000 650">
  <rect width="1000" height="650" fill="#020203"/>
  <g fill="none" stroke="#D9DEE7" stroke-opacity=".28" stroke-width="2">
    <rect x="80" y="70" width="840" height="510"/>
    <path d="M80 210H920M80 380H920M310 70V580M560 70V580M760 210V580"/>
    <path d="M310 210H560M560 380H760M760 380H920"/>
  </g>
  <g fill="#F4F7FA" fill-opacity=".72" font-family="monospace" font-size="18" letter-spacing="2">
    <text x="112" y="148">FRONT DESK</text>
    <text x="350" y="148">SCHEDULING</text>
    <text x="615" y="148">X-RAYS</text>
    <text x="112" y="302">PATIENTS</text>
    <text x="350" y="302">ASSISTANTS</text>
    <text x="615" y="302">EQUIPMENT</text>
    <text x="112" y="472">HYGIENISTS</text>
    <text x="350" y="472">DECISIONS</text>
    <text x="790" y="472">DENTIST</text>
  </g>
  <path d="M185 505C250 430 408 460 480 338C554 215 708 263 824 148" fill="none" stroke="#9FD7FF" stroke-opacity=".55" stroke-width="3" stroke-dasharray="10 14"/>
</svg>
