<svg xmlns="http://www.w3.org/2000/svg" width="900" height="640" viewBox="0 0 900 640">
  <defs>
    <linearGradient id="sky" x1="0" x2="1" y1="0" y2="1">
      <stop offset="0" stop-color="#1d2630"/>
      <stop offset=".48" stop-color="#46525c"/>
      <stop offset="1" stop-color="#101317"/>
    </linearGradient>
    <linearGradient id="water" x1="0" x2="1">
      <stop offset="0" stop-color="#111820"/>
      <stop offset=".5" stop-color="#40515b"/>
      <stop offset="1" stop-color="#111417"/>
    </linearGradient>
    <radialGradient id="light" cx=".52" cy=".24" r=".48">
      <stop offset="0" stop-color="#f3dfb5" stop-opacity=".62"/>
      <stop offset=".45" stop-color="#c8a96a" stop-opacity=".18"/>
      <stop offset="1" stop-color="#c8a96a" stop-opacity="0"/>
    </radialGradient>
  </defs>
  <rect width="900" height="640" fill="url(#sky)"/>
  <rect width="900" height="640" fill="url(#light)"/>
  <path d="M0 418C120 330 234 354 342 304C492 234 592 140 740 166C808 178 856 208 900 242V640H0Z" fill="#dfe6ee" fill-opacity=".36"/>
  <path d="M0 494C160 420 308 438 462 384C616 330 742 284 900 324V640H0Z" fill="url(#water)" opacity=".96"/>
  <path d="M70 420C190 390 286 448 406 418S626 344 820 392" fill="none" stroke="#f4f4f4" stroke-opacity=".58" stroke-width="2"/>
  <path d="M0 284C128 284 214 242 328 262C442 282 520 332 656 300C764 275 828 226 900 235" fill="none" stroke="#f4f4f4" stroke-opacity=".44" stroke-width="3"/>
  <circle cx="460" cy="148" r="86" fill="#f3dfb5" fill-opacity=".52"/>
  <g fill="#f3dfb5" fill-opacity=".34">
    <circle cx="130" cy="156" r="5"/>
    <circle cx="168" cy="112" r="3"/>
    <circle cx="224" cy="184" r="4"/>
    <circle cx="298" cy="126" r="3"/>
    <circle cx="742" cy="248" r="4"/>
    <circle cx="788" cy="206" r="3"/>
    <circle cx="824" cy="276" r="5"/>
  </g>
  <g stroke="#f4f4f4" stroke-opacity=".36">
    <path d="M72 72H828V568H72Z"/>
    <path d="M116 116H784V524H116Z"/>
  </g>
  <rect x="116" y="476" width="412" height="1" fill="#f4f4f4" opacity=".3"/>
  <text x="116" y="512" fill="#d8dce3" font-family="monospace" font-size="20" letter-spacing="4">JAPAN PHOTO / MOMENT STILL</text>
</svg>
