<svg xmlns="http://www.w3.org/2000/svg" width="1100" height="560" viewBox="0 0 1100 560">
  <rect width="1100" height="560" fill="#020203"/>
  <g stroke="#D9DEE7" stroke-opacity=".18">
    <path d="M80 94H1020M80 172H1020M80 250H1020M80 328H1020M80 406H1020M80 484H1020"/>
  </g>
  <g fill="none" stroke="#F4F7FA" stroke-linecap="round">
    <path d="M92 172C154 118 204 230 268 170S382 112 450 174S552 232 620 170S742 102 812 172S930 222 1002 170" stroke-opacity=".74" stroke-width="3"/>
    <path d="M92 328C150 358 194 282 254 324S368 398 436 326S556 244 642 326S800 398 1002 314" stroke-opacity=".42" stroke-width="2"/>
    <path d="M92 434C196 408 270 506 366 436S510 388 610 436S802 506 1002 414" stroke-opacity=".28" stroke-width="2"/>
  </g>
  <g fill="#A8B0BD" font-family="monospace" font-size="14" letter-spacing="2">
    <text x="80" y="66">SOUND SELECTION</text>
    <text x="80" y="544">MIX / ARRANGE / PRACTICE</text>
  </g>
</svg>
